# xmcd
#
# Track frame offsets: 
#        150
#        14503
#        31293
#        50855
#        67614
#        84244
#        101579
#
# Disc length: 1580 seconds
#
# Revision: 0
# Processed by: cddbd v1.5.2PL0 Copyright (c) Steve Scherf et al.
# Submitted via: ExactAudioCopy v0.99pb5
#
DISCID=4e062a07
DTITLE=BerlinskiBeat - Die Stadt is heiﬂ!
DYEAR=2015
DGENRE=Alternative
TTITLE0=Ick mach heut frei
TTITLE1=Never Change A Running System
TTITLE2=Die Stadt is heiﬂ!
TTITLE3=Die glorreichen Sieben
TTITLE4=Hertha BSC
TTITLE5=Nacht in Berlin
TTITLE6=Nacht in Berlin - Pep-M3MT-Remix
EXTD=
EXTT0=
EXTT1=
EXTT2=
EXTT3=
EXTT4=
EXTT5=
EXTT6=
PLAYORDER=
